<svg xmlns="http://www.w3.org/2000/svg" viewBox="0 0 64 64">
  <rect width="64" height="64" rx="16" fill="#183f2d"/>
  <path d="M18 24c0-6.6 5.4-12 12-12h4c6.6 0 12 5.4 12 12v4h-6v-4c0-3.3-2.7-6-6-6h-4c-3.3 0-6 2.7-6 6v4h-6v-4Z" fill="#f6efe4"/>
  <path d="M14 26h36l-2.2 23.2A5.3 5.3 0 0 1 42.5 54h-21a5.3 5.3 0 0 1-5.3-4.8L14 26Z" fill="#f6efe4"/>
  <path d="M24 34h16" stroke="#b84a34" stroke-width="5" stroke-linecap="round"/>
  <path d="M25 43h14" stroke="#b84a34" stroke-width="5" stroke-linecap="round"/>
</svg>
